<svg width="16" height="16" viewBox="0 0 16 16" fill="none" xmlns="http://www.w3.org/2000/svg">
<path fill-rule="evenodd" clip-rule="evenodd" d="M0.273751 0.910426C0.378539 0.59606 0.718331 0.426164 1.0327 0.530953L1.24463 0.601596C1.25519 0.605116 1.26571 0.608624 1.2762 0.612121C1.7773 0.779135 2.20077 0.920273 2.53375 1.07518C2.8877 1.23984 3.19482 1.44392 3.42769 1.76701C3.66057 2.09011 3.75706 2.446 3.80134 2.83386C3.843 3.19874 3.84298 3.64511 3.84296 4.1733L3.84296 6.30016C3.84296 7.4485 3.84424 8.24939 3.92548 8.85367C4.0044 9.44069 4.14876 9.75154 4.37017 9.97296C4.59158 10.1944 4.90244 10.3387 5.48946 10.4176C6.09374 10.4989 6.89463 10.5002 8.04296 10.5002H13.643C13.9743 10.5002 14.243 10.7688 14.243 11.1002C14.243 11.4315 13.9743 11.7002 13.643 11.7002H7.99907C6.90499 11.7002 6.02313 11.7002 5.32956 11.6069C4.60947 11.5101 4.00317 11.303 3.52164 10.8215C3.04011 10.3399 2.83299 9.73365 2.73618 9.01356C2.64293 8.31999 2.64294 7.43814 2.64296 6.34406L2.64296 4.20659C2.64296 3.6362 2.64205 3.25878 2.60908 2.96998C2.57786 2.6965 2.52334 2.56459 2.4542 2.46867C2.38507 2.37275 2.27717 2.27931 2.0276 2.16321C1.76404 2.0406 1.40628 1.92039 0.865153 1.74002L0.653224 1.66937C0.338858 1.56458 0.168962 1.22479 0.273751 0.910426Z" fill="white"/>
<path opacity="0.5" d="M3.8385 3.5C3.84248 3.70729 3.84247 3.93166 3.84246 4.17312L3.84246 6.3C3.84246 7.44833 3.84373 8.24922 3.92498 8.8535C3.93683 8.94169 3.95017 9.02365 3.96502 9.1H12.0601C12.8276 9.1 13.2114 9.1 13.5119 8.90181C13.8125 8.70362 13.9637 8.35088 14.266 7.64541L14.6089 6.84541C15.2565 5.33435 15.5803 4.57882 15.2246 4.03941C14.8689 3.5 14.0469 3.5 12.4029 3.5H3.8385Z" fill="white"/>
<path d="M5.24358 13.1001C5.90632 13.1001 6.44358 13.6374 6.44358 14.3001C6.44358 14.9628 5.90632 15.5001 5.24358 15.5001C4.58084 15.5001 4.04358 14.9628 4.04358 14.3001C4.04358 13.6374 4.58084 13.1001 5.24358 13.1001Z" fill="white"/>
<path d="M13.6436 14.3002C13.6436 13.6374 13.1063 13.1002 12.4436 13.1002C11.7808 13.1002 11.2436 13.6374 11.2436 14.3002C11.2436 14.9629 11.7808 15.5002 12.4436 15.5002C13.1063 15.5002 13.6436 14.9629 13.6436 14.3002Z" fill="white"/>
</svg>
