<svg width="21" height="21" viewBox="0 0 21 21" fill="none" xmlns="http://www.w3.org/2000/svg">
<path fill-rule="evenodd" clip-rule="evenodd" d="M3.90708 6.82759C4.65523 6.03875 4.92016 5.81748 5.23868 5.71527C5.45944 5.65721 5.69103 5.65379 5.91341 5.70535C6.20612 5.79069 6.28252 5.85518 7.24302 6.81072C8.0864 7.65016 8.16975 7.74145 8.25112 7.90219C8.40849 8.19151 8.43379 8.53455 8.32057 8.84379C8.23723 9.07697 8.11419 9.23176 7.60321 9.74574L7.26981 10.0801C7.1821 10.1691 7.1613 10.3044 7.21821 10.4155C7.9583 11.6783 9.0081 12.7314 10.2684 13.4756C10.4137 13.5536 10.5928 13.5283 10.7109 13.4131L11.0314 13.0976C11.2295 12.8944 11.4392 12.7028 11.6595 12.524C12.005 12.3103 12.4363 12.2897 12.8006 12.4695C12.9782 12.5528 13.0377 12.6074 13.9079 13.4746C14.801 14.3676 14.8297 14.3964 14.93 14.6018C15.1171 14.9421 15.1152 15.3548 14.925 15.6933C14.8258 15.8838 14.7702 15.9533 14.2661 16.4682C13.9615 16.7798 13.6708 17.0636 13.6291 17.1053C13.2129 17.4494 12.6792 17.6184 12.1407 17.5766C11.1556 17.4865 10.2023 17.1817 9.34755 16.6836C7.45321 15.6799 5.84062 14.2174 4.65722 12.4298C4.39843 12.0561 4.16824 11.6634 3.9686 11.255C3.43666 10.3431 3.16166 9.30409 3.17281 8.24849C3.21282 7.69434 3.4782 7.18079 3.90708 6.82759Z" stroke="#9599A9" stroke-width="1.48838" stroke-linecap="round" stroke-linejoin="round"/>
<path d="M12.4429 2.98297C12.056 2.84413 11.6299 3.04517 11.491 3.43201C11.3522 3.81885 11.5532 4.245 11.9401 4.38385L12.4429 2.98297ZM16.3574 8.72722C16.5027 9.11171 16.9322 9.3055 17.3167 9.16013C17.7011 9.01477 17.895 8.58533 17.7496 8.20089L16.3574 8.72722ZM11.264 5.19304C10.863 5.10251 10.4646 5.3541 10.3741 5.75501C10.2835 6.15592 10.5352 6.55432 10.936 6.64486L11.264 5.19304ZM14.1574 9.81294C14.2546 10.2123 14.6572 10.4572 15.0564 10.36C15.4558 10.2627 15.7007 9.86027 15.6036 9.46089L14.1574 9.81294ZM11.9401 4.38385C13.9774 5.11509 15.5919 6.70254 16.3574 8.72722L17.7496 8.20089C16.83 5.76852 14.8904 3.86144 12.4429 2.98297L11.9401 4.38385ZM10.936 6.64486C12.5243 7.00355 13.7723 8.2309 14.1574 9.81294L15.6036 9.46089C15.0847 7.32968 13.4035 5.67625 11.264 5.19304L10.936 6.64486Z" fill="#9599A9"/>
</svg>
