<svg width="610" height="453" viewBox="0 0 610 453" fill="none" xmlns="http://www.w3.org/2000/svg">
<path d="M521.286 162.673C432.289 119.264 371.727 185.123 348.922 209.918C319.484 241.959 286.89 273.255 255.372 303.521C239.344 318.938 222.742 334.851 206.643 350.837C178.101 379.113 131.702 379.077 103.16 350.837C101.188 348.883 99.3233 346.823 97.6022 344.691C96.9926 343.945 96.4189 343.235 95.8811 342.453C95.1639 341.459 94.4468 340.464 93.7655 339.47C93.0483 338.439 92.4029 337.374 91.7934 336.344C91.1838 335.349 90.646 334.318 90.0722 333.288C89.6778 332.542 89.3193 331.832 88.9249 331.051C88.4229 329.985 87.9208 328.955 87.4905 327.889C85.6977 323.697 84.3352 319.399 83.3312 314.959C83.3312 314.923 83.3312 314.852 83.3312 314.781C83.0802 313.573 82.8292 312.33 82.6499 311.087C82.4706 310.163 82.3631 309.204 82.2555 308.245C82.1479 307.357 82.0403 306.469 81.9686 305.581C81.8969 304.799 81.861 303.982 81.7893 303.201C81.7893 303.165 81.7893 303.094 81.7893 303.059C81.6818 300.714 81.6818 298.405 81.7893 296.096C81.7893 296.061 81.7893 295.99 81.7893 295.954C81.8252 294.782 81.9328 293.609 82.0404 292.437C82.6499 286.718 83.9049 281.034 85.8412 275.564C85.8412 275.528 85.8412 275.493 85.8412 275.458C86.63 273.291 87.4905 271.159 88.4945 269.028C88.9965 267.962 89.4985 266.896 90.0722 265.831C90.6101 264.836 91.1838 263.806 91.7575 262.847C92.0802 262.279 92.4388 261.746 92.7974 261.213C93.156 260.609 93.5504 260.005 93.9448 259.401C94.5543 258.478 95.1639 257.59 95.8452 256.702C96.383 255.956 96.9926 255.21 97.5663 254.464C99.2874 252.332 101.116 250.272 103.124 248.318L250.747 102.071C261.79 91.0946 275.559 84.4162 289.902 81.9652C312.564 78.0577 336.731 84.7716 354.229 102.071C363.05 110.81 369.504 121.68 372.875 133.473L374.309 133.082C395.034 120.152 420.421 109.495 450.11 107.044C442.652 83.706 429.528 62.2858 411.923 44.8441C361.867 -4.74558 285.779 -13.2001 226.83 19.4453C214.71 26.1591 203.308 34.6136 192.981 44.8441L45.3588 191.091C16.1355 220.042 0 258.584 0 299.577C0 340.57 16.0997 379.042 45.3588 408.028C105.706 467.813 203.918 467.813 264.3 408.028C268.209 404.121 272.189 400.249 276.169 396.377C276.922 395.595 277.711 394.849 278.536 394.068C287.751 385.081 297.038 376.129 306.181 367.319C308.189 365.401 310.161 363.518 312.133 361.6C344.548 330.482 378.038 298.299 409.198 264.446C444.947 225.548 462.194 224.056 485.178 235.246C509.776 247.252 527.597 274.321 527.597 299.613C527.597 339.576 494.752 372.115 454.413 372.115H361.58C354.839 378.651 348.098 385.116 341.428 391.51C325.687 406.643 309.444 422.237 294.026 437.512C289.077 442.45 283.878 447.032 278.5 451.366V453H454.413C539.752 453 609.207 384.192 609.207 299.648C609.207 243.416 573.852 188.392 521.178 162.709L521.286 162.673Z" fill="white" fill-opacity="0.05"/>
</svg>
