<svg width="8" height="9" viewBox="0 0 8 9" fill="none" xmlns="http://www.w3.org/2000/svg">
<path fill-rule="evenodd" clip-rule="evenodd" d="M5.46292 0.0111996C5.09049 0.00364304 4.67651 0.137098 3.99686 0.356199L3.9083 0.384738C3.64223 0.47044 3.47852 0.523172 3.32701 0.598666C3.01382 0.754729 2.74006 0.982487 2.52701 1.26424C2.42395 1.40053 2.34023 1.55365 2.20417 1.8025L1.24036 3.56497C0.933448 4.126 0.746163 4.46836 0.674349 4.80498C0.515673 5.54876 0.724877 6.32471 1.23393 6.88053C1.46432 7.13208 1.79676 7.32814 2.34155 7.64942L2.4447 7.71027C2.98939 8.03172 3.32178 8.22788 3.65018 8.30598C4.37578 8.47854 5.13803 8.27569 5.68908 7.76338C5.93847 7.53152 6.13499 7.19462 6.45703 6.64252L7.46888 4.90839C7.61176 4.66356 7.69968 4.51291 7.76366 4.35357C7.89593 4.02416 7.95209 3.66803 7.92776 3.31284C7.91599 3.14102 7.87882 2.96979 7.81842 2.69148L7.79834 2.59886C7.64421 1.88788 7.55032 1.4548 7.3577 1.12902C6.95561 0.448929 6.24036 0.0269739 5.46292 0.0111996ZM4.10939 0.953369C4.875 0.706698 5.18874 0.609856 5.45118 0.615181C6.02582 0.62684 6.55448 0.93872 6.85168 1.44139C6.98741 1.67097 7.0622 1.99702 7.23594 2.79786C7.30324 3.10806 7.32966 3.2334 7.33799 3.35502C7.35598 3.61755 7.31447 3.88078 7.21671 4.12425C7.17141 4.23705 7.10781 4.34756 6.94856 4.62047L5.97972 6.28087C5.61744 6.90176 5.46708 7.15305 5.29121 7.31655C4.88391 7.69521 4.32051 7.84515 3.78419 7.7176C3.55261 7.66253 3.30139 7.51811 2.68873 7.15667C2.07607 6.79524 1.82806 6.64514 1.66559 6.46775C1.28933 6.05693 1.13471 5.48339 1.25199 4.93364C1.30263 4.69626 1.44042 4.43756 1.78551 3.80652L2.70835 2.11898C2.86003 1.84161 2.92189 1.73007 2.99484 1.63359C3.15231 1.42534 3.35465 1.257 3.58615 1.14164C3.69339 1.0882 3.81283 1.04892 4.10939 0.953369Z" fill="#34C759"/>
<path fill-rule="evenodd" clip-rule="evenodd" d="M4.1722 2.40965C3.9001 2.89121 4.06158 3.50698 4.53286 3.78501C5.00414 4.06304 5.60677 3.89805 5.87886 3.41649C6.15096 2.93493 5.98948 2.31916 5.5182 2.04113C5.04692 1.7631 4.44429 1.92809 4.1722 2.40965ZM4.6842 2.7117C4.57536 2.90433 4.63995 3.15064 4.82846 3.26185C5.01697 3.37306 5.25802 3.30706 5.36686 3.11444C5.4757 2.92181 5.41111 2.6755 5.2226 2.56429C5.03409 2.45308 4.79304 2.51908 4.6842 2.7117Z" fill="#34C759"/>
</svg>
