<svg width="4" height="9" viewBox="0 0 4 9" fill="none" xmlns="http://www.w3.org/2000/svg">
<path d="M0.929425 0.651172C0.715463 0.448331 0.370104 0.449805 0.158043 0.654464C-0.0540177 0.859122 -0.0524769 1.18947 0.161485 1.39231L1.44364 2.60783C1.964 3.10114 2.32095 3.44064 2.56248 3.72832C2.79709 4.00776 2.87758 4.18725 2.899 4.348C2.91245 4.44893 2.91245 4.55107 2.899 4.652C2.87758 4.81275 2.79709 4.99224 2.56248 5.27168C2.32095 5.55935 1.964 5.89886 1.44364 6.39217L0.161485 7.60769C-0.0524769 7.81053 -0.0540177 8.14088 0.158043 8.34554C0.370104 8.5502 0.715463 8.55167 0.929425 8.34883L2.23468 7.11141C2.7263 6.64536 3.1281 6.26446 3.41305 5.92507C3.70936 5.57215 3.92386 5.21393 3.98116 4.78394C4.00628 4.5954 4.00628 4.4046 3.98116 4.21606C3.92386 3.78607 3.70936 3.42785 3.41305 3.07493C3.1281 2.73554 2.7263 2.35464 2.23468 1.88859L0.929425 0.651172Z" fill="#B0B0B0"/>
</svg>
