<svg width="32" height="24" viewBox="0 0 32 24" fill="none" xmlns="http://www.w3.org/2000/svg">
<path d="M27.3818 8.61844C22.707 6.31864 19.5258 9.80785 18.328 11.1215C16.7816 12.819 15.0696 14.4771 13.414 16.0806C12.5721 16.8974 11.7001 17.7405 10.8544 18.5874C9.35515 20.0854 6.91795 20.0836 5.41872 18.5874C5.31513 18.4839 5.21719 18.3747 5.12678 18.2618C5.09476 18.2223 5.06463 18.1846 5.03638 18.1432C4.99871 18.0905 4.96103 18.0378 4.92525 17.9851C4.88758 17.9306 4.85368 17.8741 4.82166 17.8195C4.78964 17.7668 4.76139 17.7122 4.73125 17.6577C4.71053 17.6181 4.6917 17.5805 4.67098 17.5391C4.64461 17.4827 4.61824 17.4281 4.59564 17.3716C4.50147 17.1495 4.4299 16.9218 4.37716 16.6866C4.37716 16.6847 4.37716 16.6809 4.37716 16.6771C4.36398 16.6132 4.35079 16.5473 4.34138 16.4814C4.33196 16.4325 4.32631 16.3817 4.32066 16.3309C4.31501 16.2838 4.30936 16.2368 4.30559 16.1897C4.30182 16.1483 4.29994 16.105 4.29617 16.0636C4.29617 16.0617 4.29617 16.058 4.29617 16.0561C4.29052 15.9319 4.29052 15.8095 4.29617 15.6872C4.29617 15.6853 4.29617 15.6816 4.29617 15.6797C4.29806 15.6176 4.30371 15.5555 4.30936 15.4934C4.34138 15.1904 4.4073 14.8892 4.50901 14.5994C4.50901 14.5975 4.50901 14.5957 4.50901 14.5938C4.55044 14.479 4.59564 14.366 4.64838 14.2531C4.67475 14.1967 4.70112 14.1402 4.73125 14.0837C4.7595 14.031 4.78964 13.9765 4.81978 13.9257C4.83673 13.8956 4.85556 13.8673 4.8744 13.8391C4.89323 13.8071 4.91395 13.7751 4.93467 13.7431C4.96669 13.6942 4.9987 13.6471 5.03449 13.6001C5.06274 13.5606 5.09476 13.521 5.1249 13.4815C5.2153 13.3686 5.31136 13.2594 5.41683 13.1559L13.171 5.40774C13.7511 4.8262 14.4744 4.47238 15.2278 4.34252C16.4181 4.13551 17.6876 4.49121 18.6067 5.40774C19.07 5.87071 19.4091 6.4466 19.5861 7.07142L19.6614 7.05072C20.7501 6.36567 22.0836 5.80108 23.6431 5.67123C23.2513 4.43475 22.562 3.29991 21.6372 2.37585C19.0079 -0.251421 15.0112 -0.699341 11.9148 1.03021C11.2782 1.38591 10.6792 1.83383 10.1368 2.37585L2.38258 10.124C0.847556 11.6579 0 13.6998 0 15.8716C0 18.0435 0.845673 20.0817 2.38258 21.6174C5.55244 24.7848 10.7112 24.7848 13.883 21.6174C14.0883 21.4104 14.2974 21.2052 14.5064 21.0001C14.546 20.9587 14.5874 20.9192 14.6307 20.8778C15.1148 20.4016 15.6026 19.9274 16.0829 19.4606C16.1883 19.359 16.2919 19.2593 16.3955 19.1576C18.0982 17.509 19.8573 15.8039 21.4941 14.0104C23.3719 11.9496 24.2778 11.8705 25.4851 12.4633C26.7772 13.0995 27.7132 14.5335 27.7132 15.8735C27.7132 17.9908 25.988 19.7147 23.8691 19.7147H18.9928C18.6387 20.061 18.2846 20.4035 17.9343 20.7423C17.1075 21.544 16.2543 22.3702 15.4444 23.1795C15.1845 23.441 14.9114 23.6838 14.6288 23.9134V24H23.8691C28.3517 24 32 20.3546 32 15.8754C32 12.8962 30.1429 9.98101 27.3761 8.62032L27.3818 8.61844Z" fill="#FF592C"/>
</svg>
