<svg width="23" height="23" viewBox="0 0 23 23" fill="none" xmlns="http://www.w3.org/2000/svg">
<path fill-rule="evenodd" clip-rule="evenodd" d="M9.75 0C4.36522 0 0 4.36522 0 9.75C0 15.1348 4.36522 19.5 9.75 19.5C15.1348 19.5 19.5 15.1348 19.5 9.75C19.5 4.36522 15.1348 0 9.75 0ZM1.5 9.75C1.5 5.19365 5.19365 1.5 9.75 1.5C14.3063 1.5 18 5.19365 18 9.75C18 14.3063 14.3063 18 9.75 18C5.19365 18 1.5 14.3063 1.5 9.75Z" fill="#FF592C"/>
<path d="M18.2804 17.2198C17.9875 16.9269 17.5126 16.9269 17.2197 17.2198C16.9268 17.5126 16.9268 17.9875 17.2197 18.2804L21.2196 22.2804C21.5125 22.5733 21.9874 22.5733 22.2803 22.2804C22.5732 21.9875 22.5732 21.5126 22.2803 21.2197L18.2804 17.2198Z" fill="#FF592C"/>
</svg>
