<svg width="25" height="24" viewBox="0 0 25 24" fill="none" xmlns="http://www.w3.org/2000/svg">
<path fill-rule="evenodd" clip-rule="evenodd" d="M12 2.75C7.16751 2.75 3.25 6.66751 3.25 11.5C3.25 16.3325 7.16751 20.25 12 20.25C16.8325 20.25 20.75 16.3325 20.75 11.5C20.75 6.66751 16.8325 2.75 12 2.75ZM1.75 11.5C1.75 5.83908 6.33908 1.25 12 1.25C17.6609 1.25 22.25 5.83908 22.25 11.5C22.25 14.0605 21.3111 16.4017 19.7589 18.1982L23.0303 21.4697C23.3232 21.7626 23.3232 22.2374 23.0303 22.5303C22.7374 22.8232 22.2626 22.8232 21.9697 22.5303L18.6982 19.2589C16.9017 20.8111 14.5605 21.75 12 21.75C6.33908 21.75 1.75 17.1609 1.75 11.5Z" fill="white"/>
</svg>
